PathFileType  4	(X/Y/Z) /dataNAS/people/anoopai/OpenCap/opencap-core/Examples/Data/88c07931-43a0-4e08-ab4a-30f03d0e7de7/MarkerData/PreAugmentation
DataRate	CameraRate	NumFrames	NumMarkers	Units	OrigDataRate	OrigDataStartFrame	OrigNumFrames
60.0	60.0	12	20	m	60.0	20	76
Frame#	Time	Neck			RShoulder			RElbow			RWrist			LShoulder			LElbow			LWrist			midHip			RHip			RKnee			RAnkle			LHip			LKnee			LAnkle			LBigToe			LSmallToe			LHeel			RBigToe			RSmallToe			RHeel			
		X1	Y1	Z1	X2	Y2	Z2	X3	Y3	Z3	X4	Y4	Z4	X5	Y5	Z5	X6	Y6	Z6	X7	Y7	Z7	X8	Y8	Z8	X9	Y9	Z9	X10	Y10	Z10	X11	Y11	Z11	X12	Y12	Z12	X13	Y13	Z13	X14	Y14	Z14	X15	Y15	Z15	X16	Y16	Z16	X17	Y17	Z17	X18	Y18	Z18	X19	Y19	Z19	X20	Y20	Z20	

20	0.3166667	0.2691500	1.1351300	-0.2313800	0.2874400	1.1377300	-0.0542000	0.3387500	0.9259800	0.1215800	0.4232500	0.7572500	0.3185300	0.2611300	1.1309300	-0.4112700	0.3095900	0.9474900	-0.5971800	0.3813900	0.7729300	-0.7865400	0.2725800	0.5886800	-0.2147400	0.2935500	0.5953700	-0.0991700	0.1878800	0.2128600	-0.0678700	0.1328200	-0.1787700	-0.0386900	0.2565200	0.5823600	-0.3318500	0.1504400	0.2142900	-0.3358500	0.0899400	-0.1731900	-0.3704100	0.2627000	-0.2294400	-0.4390100	0.2574200	-0.2282200	-0.4370600	0.0509100	-0.2065100	-0.3569800	0.3183700	-0.2325000	0.0009000	0.3147300	-0.2300900	0.0004900	0.0976800	-0.2091500	-0.0396300
21	0.3333333	0.2691200	1.1350400	-0.2313300	0.2873600	1.1375700	-0.0540500	0.3388000	0.9260200	0.1215200	0.4234600	0.7572500	0.3185800	0.2611800	1.1309100	-0.4113100	0.3096600	0.9474800	-0.5973900	0.3814900	0.7731800	-0.7865400	0.2726100	0.5881900	-0.2146700	0.2934900	0.5947800	-0.0991200	0.1876900	0.2127300	-0.0678200	0.1327800	-0.1789200	-0.0387500	0.2566500	0.5819200	-0.3317400	0.1501200	0.2140100	-0.3360400	0.0899100	-0.1732400	-0.3704500	0.2629800	-0.2295500	-0.4390200	0.2576900	-0.2283300	-0.4370700	0.0510700	-0.2066500	-0.3568600	0.3182700	-0.2325900	0.0008300	0.3146300	-0.2301900	0.0004300	0.0977300	-0.2092100	-0.0397400
22	0.3500000	0.2690700	1.1349500	-0.2312800	0.2872000	1.1374400	-0.0539500	0.3388500	0.9259700	0.1215300	0.4235900	0.7572800	0.3186000	0.2612100	1.1309000	-0.4113200	0.3098000	0.9474100	-0.5975900	0.3815900	0.7733700	-0.7864800	0.2725700	0.5876300	-0.2146400	0.2934200	0.5942000	-0.0990400	0.1875400	0.2125700	-0.0677800	0.1327000	-0.1791100	-0.0388300	0.2566200	0.5813500	-0.3317600	0.1498200	0.2138200	-0.3362300	0.0899200	-0.1732700	-0.3704700	0.2632400	-0.2295800	-0.4390600	0.2579700	-0.2283600	-0.4371100	0.0510100	-0.2066400	-0.3568100	0.3182000	-0.2327200	0.0007500	0.3145400	-0.2303000	0.0003300	0.0976800	-0.2092900	-0.0397300
23	0.3666667	0.2690000	1.1348600	-0.2312400	0.2870400	1.1373000	-0.0538500	0.3388600	0.9258000	0.1215900	0.4236200	0.7572300	0.3186100	0.2612400	1.1308800	-0.4113300	0.3099800	0.9473700	-0.5977700	0.3816700	0.7735900	-0.7863900	0.2725400	0.5872800	-0.2146200	0.2933400	0.5938500	-0.0990200	0.1873600	0.2123900	-0.0678100	0.1325800	-0.1792600	-0.0389200	0.2566300	0.5811000	-0.3317600	0.1495900	0.2136300	-0.3363900	0.0899500	-0.1733000	-0.3704800	0.2634500	-0.2296700	-0.4390200	0.2581700	-0.2284400	-0.4370700	0.0510100	-0.2065600	-0.3568500	0.3181400	-0.2328200	0.0006600	0.3144800	-0.2303900	0.0002500	0.0975700	-0.2094600	-0.0397700
24	0.3833333	0.2689200	1.1347600	-0.2312000	0.2868700	1.1371500	-0.0537400	0.3387900	0.9257600	0.1216800	0.4235400	0.7571700	0.3185800	0.2612400	1.1308400	-0.4113600	0.3101700	0.9473600	-0.5979100	0.3816500	0.7736900	-0.7863000	0.2725200	0.5870400	-0.2146200	0.2932900	0.5935200	-0.0989600	0.1872000	0.2121100	-0.0678200	0.1324500	-0.1794400	-0.0390100	0.2566600	0.5807800	-0.3318000	0.1494700	0.2134000	-0.3364900	0.0900000	-0.1733100	-0.3704500	0.2636000	-0.2296800	-0.4390100	0.2583300	-0.2284700	-0.4370600	0.0512400	-0.2065200	-0.3568000	0.3181000	-0.2329000	0.0005800	0.3144200	-0.2304900	0.0001800	0.0974900	-0.2096600	-0.0398600
25	0.4000000	0.2688500	1.1346700	-0.2311600	0.2867500	1.1369600	-0.0536600	0.3386600	0.9256100	0.1218000	0.4233700	0.7570700	0.3185400	0.2612300	1.1308200	-0.4113600	0.3103600	0.9473700	-0.5979900	0.3815700	0.7738800	-0.7862500	0.2724600	0.5869000	-0.2146600	0.2932400	0.5934400	-0.0989500	0.1870500	0.2117600	-0.0677700	0.1323200	-0.1795600	-0.0390900	0.2565600	0.5806800	-0.3318900	0.1494200	0.2132300	-0.3365200	0.0900600	-0.1733700	-0.3704200	0.2636900	-0.2296800	-0.4389000	0.2584300	-0.2284600	-0.4369400	0.0512600	-0.2064200	-0.3567600	0.3180800	-0.2330300	0.0004900	0.3143900	-0.2306100	0.0000800	0.0972100	-0.2096300	-0.0393900
26	0.4166667	0.2687700	1.1346200	-0.2311400	0.2866300	1.1368500	-0.0536300	0.3384500	0.9255900	0.1219200	0.4231100	0.7570400	0.3184600	0.2611900	1.1307900	-0.4113800	0.3105400	0.9474300	-0.5980300	0.3813700	0.7740100	-0.7862000	0.2724400	0.5864500	-0.2146600	0.2932400	0.5930700	-0.0987700	0.1868700	0.2115300	-0.0678800	0.1322400	-0.1797500	-0.0391600	0.2564900	0.5805800	-0.3320000	0.1494700	0.2130500	-0.3364700	0.0901400	-0.1734300	-0.3703800	0.2637400	-0.2296500	-0.4387500	0.2584800	-0.2284000	-0.4367600	0.0514300	-0.2062700	-0.3567900	0.3180600	-0.2331600	0.0004100	0.3143700	-0.2307400	-0.0000100	0.0971200	-0.2098900	-0.0394300
27	0.4333333	0.2686800	1.1345400	-0.2311000	0.2865200	1.1367200	-0.0535300	0.3381900	0.9255200	0.1220500	0.4228100	0.7568100	0.3184600	0.2611400	1.1307900	-0.4113600	0.3107200	0.9475100	-0.5980000	0.3810900	0.7740100	-0.7863300	0.2724000	0.5866400	-0.2147000	0.2932300	0.5932700	-0.0987900	0.1867200	0.2112300	-0.0678700	0.1322200	-0.1799900	-0.0391900	0.2564600	0.5803700	-0.3321500	0.1495500	0.2130900	-0.3364000	0.0901900	-0.1733000	-0.3703100	0.2637300	-0.2295500	-0.4386400	0.2584800	-0.2283100	-0.4366600	0.0515000	-0.2061700	-0.3566400	0.3180400	-0.2332600	0.0003600	0.3143400	-0.2308600	-0.0000500	0.0970900	-0.2102500	-0.0396100
28	0.4500000	0.2686000	1.1345400	-0.2310900	0.2864000	1.1367000	-0.0535500	0.3379000	0.9254200	0.1221700	0.4224900	0.7566200	0.3184500	0.2610700	1.1308400	-0.4113300	0.3108900	0.9476600	-0.5979500	0.3807300	0.7739700	-0.7864700	0.2723700	0.5868100	-0.2147200	0.2932100	0.5933800	-0.0987400	0.1865800	0.2109900	-0.0678600	0.1322300	-0.1801800	-0.0391900	0.2564200	0.5804600	-0.3322200	0.1497100	0.2131300	-0.3362600	0.0902600	-0.1732100	-0.3702500	0.2636900	-0.2294500	-0.4385100	0.2584300	-0.2282200	-0.4365400	0.0515600	-0.2059900	-0.3566400	0.3180300	-0.2333600	0.0003100	0.3143400	-0.2309600	-0.0001000	0.0970100	-0.2105500	-0.0395900
29	0.4666667	0.2685200	1.1345400	-0.2310600	0.2863100	1.1366400	-0.0535200	0.3375800	0.9254100	0.1222600	0.4221500	0.7563900	0.3184700	0.2610200	1.1308600	-0.4112900	0.3110800	0.9476800	-0.5978600	0.3803400	0.7739200	-0.7866700	0.2723200	0.5870000	-0.2147300	0.2931800	0.5936400	-0.0987400	0.1864600	0.2108100	-0.0678500	0.1322900	-0.1803800	-0.0391600	0.2563200	0.5807500	-0.3322500	0.1499100	0.2131300	-0.3360800	0.0903300	-0.1731300	-0.3702000	0.2636800	-0.2293100	-0.4383600	0.2584500	-0.2280600	-0.4363800	0.0517400	-0.2058700	-0.3566000	0.3180400	-0.2334900	0.0002600	0.3143200	-0.2310800	-0.0001500	0.0969900	-0.2108600	-0.0396200
30	0.4833333	0.2684400	1.1345400	-0.2310300	0.2862100	1.1366400	-0.0535000	0.3372900	0.9253500	0.1223500	0.4218200	0.7561800	0.3185000	0.2609600	1.1308700	-0.4112500	0.3112400	0.9477400	-0.5977500	0.3799300	0.7737600	-0.7868600	0.2722400	0.5872200	-0.2147400	0.2931400	0.5938800	-0.0987400	0.1863700	0.2106800	-0.0678200	0.1323600	-0.1805100	-0.0391200	0.2562000	0.5809600	-0.3322600	0.1500500	0.2131900	-0.3359000	0.0904000	-0.1730700	-0.3701700	0.2636500	-0.2292100	-0.4382500	0.2584100	-0.2279600	-0.4362700	0.0518100	-0.2057700	-0.3566000	0.3180400	-0.2335600	0.0002300	0.3143100	-0.2311600	-0.0001800	0.0969700	-0.2111000	-0.0395900
31	0.5000000	0.2683800	1.1345300	-0.2309900	0.2861900	1.1365600	-0.0534200	0.3370400	0.9252900	0.1224300	0.4215000	0.7559800	0.3185500	0.2608700	1.1309200	-0.4112500	0.3113700	0.9477900	-0.5976400	0.3795400	0.7734100	-0.7870400	0.2721900	0.5873200	-0.2146800	0.2930600	0.5940000	-0.0987000	0.1862900	0.2105900	-0.0678000	0.1324400	-0.1806400	-0.0390800	0.2561900	0.5810400	-0.3322000	0.1501600	0.2131700	-0.3357100	0.0904600	-0.1730400	-0.3701500	0.2636200	-0.2291200	-0.4381400	0.2583600	-0.2278800	-0.4361700	0.0517900	-0.2057300	-0.3565900	0.3180300	-0.2335900	0.0002100	0.3143000	-0.2311900	-0.0002100	0.0970700	-0.2112000	-0.0395300
